<svg width="14" height="13" viewBox="0 0 14 13" fill="none" xmlns="http://www.w3.org/2000/svg">
<path fill-rule="evenodd" clip-rule="evenodd" d="M12.0181 1.31091H2.15582C1.99234 1.31091 1.83556 1.37585 1.71996 1.49145C1.60437 1.60705 1.53943 1.76383 1.53943 1.9273V10.5568C1.53943 10.7203 1.60437 10.8771 1.71996 10.9927C1.83556 11.1083 1.99234 11.1732 2.15582 11.1732H12.0181C12.1816 11.1732 12.3384 11.1083 12.454 10.9927C12.5696 10.8771 12.6345 10.7203 12.6345 10.5568V1.9273C12.6345 1.76383 12.5696 1.60705 12.454 1.49145C12.3384 1.37585 12.1816 1.31091 12.0181 1.31091ZM2.15582 0.078125C1.66539 0.078125 1.19504 0.272949 0.848253 0.619737C0.501464 0.966526 0.306641 1.43687 0.306641 1.9273V10.5568C0.306641 11.0472 0.501464 11.5176 0.848253 11.8644C1.19504 12.2112 1.66539 12.406 2.15582 12.406H12.0181C12.5085 12.406 12.9789 12.2112 13.3257 11.8644C13.6725 11.5176 13.8673 11.0472 13.8673 10.5568V1.9273C13.8673 1.43687 13.6725 0.966526 13.3257 0.619737C12.9789 0.272949 12.5085 0.078125 12.0181 0.078125H2.15582ZM3.38861 3.16009H4.62139V4.39288H3.38861V3.16009ZM6.47057 3.16009C6.30709 3.16009 6.15031 3.22503 6.03472 3.34063C5.91912 3.45622 5.85418 3.61301 5.85418 3.77648C5.85418 3.93996 5.91912 4.09674 6.03472 4.21234C6.15031 4.32794 6.30709 4.39288 6.47057 4.39288H10.1689C10.3324 4.39288 10.4892 4.32794 10.6048 4.21234C10.7204 4.09674 10.7853 3.93996 10.7853 3.77648C10.7853 3.61301 10.7204 3.45622 10.6048 3.34063C10.4892 3.22503 10.3324 3.16009 10.1689 3.16009H6.47057ZM4.62139 5.62566H3.38861V6.85845H4.62139V5.62566ZM5.85418 6.24206C5.85418 6.07858 5.91912 5.9218 6.03472 5.8062C6.15031 5.69061 6.30709 5.62566 6.47057 5.62566H10.1689C10.3324 5.62566 10.4892 5.69061 10.6048 5.8062C10.7204 5.9218 10.7853 6.07858 10.7853 6.24206C10.7853 6.40553 10.7204 6.56232 10.6048 6.67791C10.4892 6.79351 10.3324 6.85845 10.1689 6.85845H6.47057C6.30709 6.85845 6.15031 6.79351 6.03472 6.67791C5.91912 6.56232 5.85418 6.40553 5.85418 6.24206ZM4.62139 8.09124H3.38861V9.32402H4.62139V8.09124ZM5.85418 8.70763C5.85418 8.54415 5.91912 8.38737 6.03472 8.27177C6.15031 8.15618 6.30709 8.09124 6.47057 8.09124H10.1689C10.3324 8.09124 10.4892 8.15618 10.6048 8.27177C10.7204 8.38737 10.7853 8.54415 10.7853 8.70763C10.7853 8.87111 10.7204 9.02789 10.6048 9.14349C10.4892 9.25908 10.3324 9.32402 10.1689 9.32402H6.47057C6.30709 9.32402 6.15031 9.25908 6.03472 9.14349C5.91912 9.02789 5.85418 8.87111 5.85418 8.70763Z" fill="#FFB200"/>
</svg>
